<svg width="172" height="172" viewBox="0 0 172 172" fill="none" xmlns="http://www.w3.org/2000/svg">
<path d="M86 172C133.496 172 172 133.496 172 86C172 38.5035 133.496 0 86 0C38.5035 0 0 38.5035 0 86C0 133.496 38.5035 172 86 172Z" fill="#212B33"/>
<path d="M120.966 65.4847C119.875 54.138 110.088 50.3057 97.7332 49.1863L97.727 33.4496L88.1583 33.4229L88.164 48.7512C85.6505 48.7387 83.0749 48.7865 80.5177 48.8285L80.518 33.4013L70.9559 33.3709L70.9517 49.1047C68.8824 49.1427 66.847 49.1792 64.8626 49.1747L64.8619 49.1185L51.6608 49.0795L51.6648 59.3171C51.6648 59.3171 58.7363 59.1962 58.6144 59.3287C62.4933 59.3397 63.7544 61.5959 64.1199 63.5421L64.1312 81.4675C64.3932 81.4707 64.7422 81.4824 65.1407 81.5364L64.1289 81.534L64.1331 106.651C63.9625 107.871 63.2483 109.818 60.5414 109.816C60.6616 109.924 53.5792 109.79 53.5792 109.79L51.6843 121.228L64.1386 121.257C66.4551 121.274 68.7355 121.32 70.9738 121.337L70.9842 137.254L80.5411 137.282L80.5379 121.535C83.0871 121.593 85.6367 121.624 88.1864 121.626L88.1815 137.304L97.7554 137.332L97.753 121.446C113.841 120.565 125.102 116.54 126.497 101.416C127.623 89.2462 121.901 83.7955 112.766 81.573C118.315 78.7621 121.78 73.7923 120.964 65.4899L120.966 65.4847ZM107.592 99.478C107.596 111.377 87.2475 109.966 80.7621 109.954L80.7566 88.8646C87.2406 88.881 107.582 87.0739 107.586 99.4816L107.592 99.478ZM103.13 69.713C103.129 80.5363 86.1579 79.2258 80.7537 79.209L80.7506 60.0834C86.1497 60.0987 103.124 58.4287 103.129 69.7181L103.13 69.713Z" fill="white"/>
</svg>
