<svg width="172" height="172" viewBox="0 0 172 172" fill="none" xmlns="http://www.w3.org/2000/svg">
<path d="M86 0C38.5037 0 0 38.5037 0 86C0 133.496 38.5037 172 86 172C133.496 172 172 133.496 172 86C172 38.5037 133.496 0 86 0ZM121.994 124.318C116.404 133.924 103.849 137.312 93.9535 131.886C84.0575 126.459 80.5674 114.271 86.1594 104.664C88.4882 100.662 87.0346 95.5855 82.9106 93.3227C78.845 91.0933 73.7016 92.4376 71.3265 96.3142H71.325V96.2983C71.2916 96.3575 71.262 96.4159 71.2278 96.4744C65.6373 106.081 53.0831 109.47 43.1879 104.042C33.2912 98.6157 29.801 86.4266 35.3915 76.8221C40.9835 67.2146 53.537 63.8269 63.4345 69.255C66.7417 71.0692 69.3286 73.6416 71.1064 76.6179V76.6073L71.1079 76.6058C73.5733 80.4254 78.7403 81.6566 82.7527 79.3407C86.8228 76.9914 88.1611 71.8836 85.7404 67.9319C79.9328 58.4482 83.1444 46.1885 92.9143 40.5509C102.683 34.9125 115.311 38.03 121.121 47.513C126.928 56.9976 123.718 69.2565 113.947 74.8949C110.784 76.719 107.2 77.6856 103.55 77.6988L103.559 77.7026V77.7042C98.8715 77.8613 95.1475 81.6217 95.2037 86.1989C95.2591 90.8368 99.1804 94.5547 103.958 94.5L103.928 94.516C107.517 94.4833 111.054 95.3722 114.201 97.0976C124.095 102.526 127.585 114.712 121.994 124.318V124.318Z" fill="black"/>
</svg>
