<svg width="172" height="108" viewBox="0 0 172 108" fill="none" xmlns="http://www.w3.org/2000/svg">
<path d="M86.1258 0.961016C81.7561 0.953439 77.3144 1.49141 72.8848 2.62116V2.61888C44.5389 9.85577 27.4298 38.676 34.6728 66.9916C41.9165 95.3072 70.7678 112.397 99.1152 105.161C127.463 97.9266 144.57 69.1064 137.328 40.7908C131.216 16.9002 109.722 1.00042 86.1258 0.961016V0.961016ZM0 1.20348V107.04H48.8957C32.2261 95.3557 21.328 76.0099 21.328 54.1219C21.328 32.2347 32.2254 12.8889 48.8957 1.20348H0V1.20348ZM123.104 1.20348C139.774 12.8889 150.672 32.2347 150.672 54.1219C150.672 76.0099 139.775 95.3557 123.104 107.04H172V1.20348H123.104ZM84.5884 18.6588L87.2138 28.922C92.0101 28.009 95.7555 28.0112 99.4031 29.4933C104.119 31.4073 105.212 36.5461 105.434 37.7811C105.655 39.0162 105.72 41.4894 105.04 43.267C104.361 45.0476 102.142 47.2214 102.142 47.2214C102.142 47.2214 105.384 47.0858 107.964 48.161C110.538 49.2369 112.873 51.695 113.857 55.9169C114.844 60.1366 115.05 64.5253 111.914 68.1607C108.854 71.7061 105.009 73.2366 103.202 73.9565L103.067 74.0095C102.206 74.3543 100.712 74.868 99.0985 75.3809L101.727 85.6593L95.3933 87.277L92.8057 77.1646L87.9814 78.3959L90.5682 88.5083L84.2345 90.126L81.6477 80.0121L69.1857 83.1922L68.5447 75.2597L72.3332 74.2936C73.6061 73.9671 74.1078 73.7147 74.5116 73.0775C74.9155 72.438 74.8374 71.6386 74.6783 71.0158L67.9824 44.8347C67.5627 43.1942 67.3156 42.785 66.3458 42.1349C65.3744 41.4841 63.5703 41.825 62.5701 42.0827L58.9089 43.0154L57.2275 36.4445L69.6903 33.2644L67.0936 23.124L73.4281 21.5078L76.0217 31.6498L80.8461 30.4185L78.2517 20.2765L84.5884 18.6588V18.6588ZM87.3662 36.8795C85.1195 36.8704 83.5549 37.2182 81.8121 37.6357C79.8216 38.113 77.8531 38.8048 77.8531 38.8048L80.9756 51.016C80.9756 51.016 83.9595 50.3485 86.2455 49.6704C88.5323 48.9915 90.8539 47.8352 92.3784 46.4061C93.9052 44.9763 94.5182 43.1813 93.8703 40.89C93.2187 38.5987 91.1827 37.0409 88.3739 36.906C88.0382 36.89 87.7022 36.8811 87.3662 36.8795V36.8795ZM94.1295 55.066C92.6608 55.0771 91.1961 55.2178 89.7522 55.4865C86.56 56.0806 82.5873 57.3141 82.5873 57.3141L86.0591 70.8847C86.0591 70.8847 90.2864 69.9027 93.0444 68.9768C95.8032 68.0524 98.5219 66.6029 99.7691 65.4337C101.014 64.2654 102.443 62.5764 101.649 59.4728C100.855 56.3678 98.4507 55.5964 97.1156 55.307C96.4481 55.1622 95.4047 55.0584 94.1295 55.066V55.066Z" fill="#F7931A"/>
</svg>
