<svg width="172" height="172" viewBox="0 0 172 172" fill="none" xmlns="http://www.w3.org/2000/svg">
<path fill-rule="evenodd" clip-rule="evenodd" d="M86 161.942C128.029 161.942 162 127.886 162 86C162 44.1139 128.029 10.0585 86 10.0585C43.9713 10.0585 10 44.1139 10 86C10 127.886 43.9713 161.942 86 161.942ZM172 86C172 133.496 133.496 172 86 172C38.5035 172 0 133.496 0 86C0 38.5035 38.5035 0 86 0C133.496 0 172 38.5035 172 86Z" fill="#49C1BF"/>
<path fill-rule="evenodd" clip-rule="evenodd" d="M85.5 145.848C118.417 145.848 145 119.222 145 86.5029C145 53.7839 118.417 27.1579 85.5 27.1579C52.5829 27.1579 26 53.7839 26 86.5029C26 119.222 52.5829 145.848 85.5 145.848ZM153 86.5029C153 123.722 122.779 153.895 85.5 153.895C48.2208 153.895 18 123.722 18 86.5029C18 49.2834 48.2208 19.1111 85.5 19.1111C122.779 19.1111 153 49.2834 153 86.5029Z" fill="#49C1BF"/>
<path d="M112.66 70.9676C111.917 62.1159 104.358 59.0645 94.7882 58.1082L94.9277 45.8413L87.508 45.7591L87.3694 57.7027C85.419 57.677 83.4277 57.6954 81.4404 57.7129L81.582 45.691L74.1614 45.6047L74.0209 57.8676C72.4137 57.8805 70.8328 57.8958 69.2947 57.8751L69.2942 57.8364L59.0561 57.7158L58.9662 65.6892C58.9662 65.6892 64.4508 65.6472 64.3587 65.7467C67.3651 65.7833 68.3212 67.5496 68.5899 69.0707L68.4329 83.0433C68.639 83.0458 68.9077 83.0593 69.2175 83.1017L68.4323 83.0952L68.2088 102.671C68.064 103.618 67.4909 105.129 65.3879 105.11C65.4849 105.194 59.9944 105.048 59.9944 105.048L58.4178 113.945L68.0799 114.056C69.8756 114.08 71.6437 114.132 73.3768 114.162L73.2396 126.567L80.6552 126.65L80.7948 114.383C82.8306 114.444 84.801 114.482 86.7252 114.506L86.5822 126.722L94.0019 126.804L94.1448 114.424C106.634 113.849 115.402 110.788 116.622 99.0126C117.607 89.5334 113.216 85.2437 106.152 83.4528C110.483 81.2994 113.215 77.4472 112.66 70.9676ZM101.97 97.3733C101.873 106.645 86.0999 105.407 81.0682 105.353L81.2609 88.917C86.2946 88.9783 102.084 87.7056 101.97 97.3733ZM98.7836 74.1443C98.6871 82.5801 85.5363 81.44 81.3495 81.392L81.5187 66.4904C85.7055 66.5383 98.8844 65.3456 98.7836 74.1443Z" fill="#49C1BF"/>
</svg>
