<svg width="172" height="172" viewBox="0 0 172 172" fill="none" xmlns="http://www.w3.org/2000/svg">
<path d="M86 172C133.496 172 172 133.496 172 86C172 38.5035 133.496 0 86 0C38.5035 0 0 38.5035 0 86C0 133.496 38.5035 172 86 172Z" fill="#49C1BF"/>
<path d="M85.9409 88.9724L49.8155 85.871L85.9355 65.4352V88.9724H85.9409ZM85.9409 112.945V150.247C73.3795 130.693 59.5335 109.172 48.375 91.7512C61.5438 99.1687 75.293 106.925 85.9409 112.95V112.945ZM85.9409 58.8294L48.375 79.7919L85.9409 21.5V58.8294V58.8294Z" fill="white"/>
<path d="M122.065 85.871L85.9399 88.9724V65.4353L122.06 85.871H122.065ZM85.9399 112.95C96.5824 106.93 110.326 99.1688 123.5 91.7513C112.342 109.177 98.4959 130.699 85.9399 150.242V112.95V112.95ZM85.9399 58.8294V21.5L123.5 79.7919L85.9399 58.8294V58.8294Z" fill="white" fill-opacity="0.601"/>
<path opacity="0.2" fill-rule="evenodd" clip-rule="evenodd" d="M85.9399 88.9764L122.06 85.875L85.9399 106.166V88.9764Z" fill="white"/>
<path opacity="0.603" fill-rule="evenodd" clip-rule="evenodd" d="M85.9359 88.9764L49.8105 85.875L85.9359 106.166V88.9764Z" fill="white"/>
</svg>
